<?xml version="1.0" encoding="UTF-8" standalone="no"?>
<svg width="28px" height="28px" viewBox="0 0 28 28" version="1.1" xmlns="http://www.w3.org/2000/svg" xmlns:xlink="http://www.w3.org/1999/xlink">
    <!-- Generator: Sketch 41 (35326) - http://www.bohemiancoding.com/sketch -->
    <title>Ei-external-link</title>
    <desc>Created with Sketch.</desc>
    <defs></defs>
    <g id="Page-1" stroke="none" stroke-width="1" fill="none" fill-rule="evenodd">
        <g id="Ei-external-link" fill="#FFFFFF">
            <polygon id="Shape" points="26.288 0.297 27.702 1.712 12.712 16.702 11.298 15.288"></polygon>
            <polygon id="Shape" points="28 10 26 10 26 2 18 2 18 0 28 0"></polygon>
            <path d="M23,28 L3,28 C1.3,28 0,26.7 0,25 L0,5 C0,3.3 1.3,2 3,2 L14,2 L14,4 L3,4 C2.4,4 2,4.4 2,5 L2,25 C2,25.6 2.4,26 3,26 L23,26 C23.6,26 24,25.6 24,25 L24,14 L26,14 L26,25 C26,26.7 24.7,28 23,28 Z" id="Shape"></path>
        </g>
    </g>
</svg>